<?xml version="1.0" standalone="no"?>
<!DOCTYPE svg PUBLIC "-//W3C//DTD SVG 20010904//EN"
 "http://www.w3.org/TR/2001/REC-SVG-20010904/DTD/svg10.dtd">
<svg version="1.0" xmlns="http://www.w3.org/2000/svg"
 width="324.000000pt" height="324.000000pt" viewBox="0 0 324.000000 324.000000"
 preserveAspectRatio="xMidYMid meet">
<metadata>
Created by potrace 1.14, written by Peter Selinger 2001-2017
</metadata>
<g transform="translate(0.000000,324.000000) scale(0.100000,-0.100000)"
fill="#000000" stroke="none">
<path d="M3060 2960 l0 -90 -90 0 -90 0 0 -75 0 -75 -75 0 c-60 0 -75 -3 -75
-15 0 -8 -7 -15 -15 -15 -12 0 -15 -15 -15 -75 l0 -75 -75 0 -75 0 0 -90 0
-90 -90 0 -90 0 0 -90 0 -90 -75 0 -75 0 0 -75 0 -75 -90 0 -90 0 0 -90 0 -90
-90 0 -90 0 0 -75 0 -75 -75 0 c-60 0 -75 -3 -75 -15 0 -8 -7 -15 -15 -15 -12
0 -15 -15 -15 -75 l0 -75 -80 0 -80 0 0 -85 0 -85 -85 0 -85 0 0 85 0 85 -75
0 -75 0 0 90 0 90 -90 0 -90 0 0 90 0 90 -85 0 -84 0 -3 73 -3 72 -80 5 -80 5
-5 85 -5 85 -80 5 -80 5 -3 82 -3 82 -87 3 -87 3 -3 78 -3 77 -55 0 c-88 0
-94 7 -94 100 l0 80 -90 0 -90 0 2 -1357 3 -1358 1618 -3 1617 -2 0 1525 0
1525 -90 0 -90 0 0 -90z"/>
</g>
</svg>
